# xmcd
#
# Track frame offsets:
#	150
#	17094
#	29602
#	46794
#	61718
#	72924
#	89190
#	114382
#	125916
#	138937
#	154342
#	167284
#	182725
#	195794
#	211456
#	237218
#
# Disc length: 3168 seconds
#
# Revision: 1
# Processed by: cddbd v1.5.1PL2 Copyright (c) Steve Scherf et al.
# Submitted via: audiograbber 1.83.01
#
DISCID=d90c5e10
DTITLE=Various Artist - ASK-48 Classic Country Vol 2
DYEAR=2003
DGENRE=Country
TTITLE0=Cal Smith - Country Bumpkin
TTITLE1=Conway Twitty - It's Only Make Believe
TTITLE2=David Frissell and Shelly West - You're The Reason God Made Oklahoma
TTITLE3=David Houston - Almost Persuaded
TTITLE4=Dolly Parton - I Will Always Love You
TTITLE5=Conway Twitty - Loretta Lynn - Lousiana Woman, Mississippi Man
TTITLE6=Emmylou Harris - Last Cheater's Waltz
TTITLE7=Freddy Fender - Before The Next Teardrop Falls
TTITLE8=Freddy Fender - Wasted Days And Wasted Nights
TTITLE9=George Jones - The Grand Tour
TTITLE10=Hank Williams - Honky Tonkin
TTITLE11=Helen Reddy - Delta Dawn
TTITLE12=Jim Reeves - One Has My Name, One Has My Heart
TTITLE13=John Conlee - Rose Colored Glasses
TTITLE14=John Denver - Take Me Home, Country Roads
TTITLE15=Data Track - Data Track
EXTD=All Star Karaoke Classic Country Volume 2
EXTT0=
EXTT1=
EXTT2=
EXTT3=
EXTT4=
EXTT5=
EXTT6=
EXTT7=
EXTT8=
EXTT9=
EXTT10=
EXTT11=
EXTT12=
EXTT13=
EXTT14=
EXTT15=
PLAYORDER=
